<svg xmlns="http://www.w3.org/2000/svg" xmlns:xlink="http://www.w3.org/1999/xlink" id="Layer_1" x="0" y="0" version="1.1" viewBox="0 0 800 600" xml:space="preserve" style="enable-background:new 0 0 800 600"><style type="text/css">.st0{fill:#f0f0f0}.st1{fill:#dcdcdc}.st2{opacity:.2;fill:#a0a0a0}.st3{opacity:.7}.st4{opacity:.2;fill:#c8c8c8}.st5{fill:#fff}.st6{fill:#141414}.st7{fill:#0a0a0a}.st8{opacity:.2}.st10,.st9{fill:#fff}.st9{opacity:.3}.st10{opacity:.4}.st11,.st12{opacity:.2;fill:#fff}.st12{opacity:.5}</style><g><circle cx="615.2" cy="335.8" r="44.8" class="st0"/><path d="M579.4,348.3c2,11.5,8.2,21.3,16.6,28c8.1,3.9,17.4,5.3,26.9,3.7c24.4-4.3,40.7-27.5,36.5-51.9 c-2.5-14.3-11.5-25.8-23.5-32.1c-6.1-1.6-12.6-1.9-19.3-0.8C591.7,299.6,575,323.4,579.4,348.3z" class="st1"/><g><path d="M617.4,315.6c-3.6,0.6-7-1.3-7.5-4.3s2-5.9,5.6-6.5c3.6-0.6,7,1.3,7.5,4.3C623.5,312,621,315,617.4,315.6z" class="st2"/><path d="M600.6,329.4c-4.8,0.8-9.4-2.4-10.2-7.2c-0.8-4.8,2.4-9.4,7.2-10.2c4.8-0.8,9.4,2.4,10.2,7.2 C608.6,324,605.4,328.5,600.6,329.4z" class="st2"/><path d="M616.5,369c-1.6,0.3-3.2-0.8-3.4-2.4c-0.3-1.6,0.8-3.2,2.4-3.4c1.6-0.3,3.2,0.8,3.4,2.4 C619.1,367.2,618.1,368.8,616.5,369z" class="st2"/><path d="M624.5,376.5c-0.5,0.1-0.9,0-1.1,0c0.2-0.1,0.6-0.3,1.1-0.4c0.5-0.1,0.9,0,1.1,0 C625.4,376.3,625,376.5,624.5,376.5z" class="st2"/><path d="M615.8,354.2c-1.7,0.3-3.3-0.8-3.6-2.5s0.8-3.3,2.5-3.6c1.7-0.3,3.3,0.8,3.6,2.5S617.5,353.9,615.8,354.2z" class="st2"/><circle cx="647.2" cy="325.3" r="2.7" class="st2"/><path d="M632,319.4c-2.8,0.5-5.4-1.4-5.9-4.1c-0.5-2.8,1.4-5.4,4.1-5.9c2.8-0.5,5.4,1.4,5.9,4.1 C636.6,316.3,634.8,318.9,632,319.4z" class="st2"/><path d="M586.6,326.2c-0.2,0-0.6,0-0.9-0.2c-0.3-0.2-0.5-0.5-0.6-0.9c-0.1-0.4,0-0.9,0.3-1.3c0.3-0.5,0.8-0.8,1.3-0.9 c0.2,0,0.6,0,0.9,0.2c0.3,0.2,0.5,0.5,0.6,0.9c0.1,0.4,0,0.9-0.3,1.3C587.6,325.8,587.1,326.1,586.6,326.2z" class="st2"/><path d="M640,302.2c-0.9,0.2-2,0-3.2-0.5c-2.1-0.9-3.1-2.4-2.8-3c0.1-0.3,0.5-0.5,1-0.6c0.9-0.2,2,0,3.2,0.5 c1,0.4,1.9,1.1,2.4,1.7c0.4,0.5,0.6,1,0.4,1.3C640.9,301.9,640.6,302.1,640,302.2z" class="st2"/><circle cx="624.8" cy="345.7" r="1.5" class="st2"/><circle cx="630.8" cy="355.8" r="1" class="st2"/><circle cx="625.5" cy="354.3" r="1" class="st2"/><path d="M587.7,357c-2.4,0.4-4.8-0.9-6.2-3.2c-1.7-2.9-1-6.5,1.6-8c0.5-0.3,1-0.5,1.6-0.6c2.4-0.4,4.8,0.9,6.2,3.2 c0.8,1.4,1.1,3.1,0.8,4.6c-0.3,1.5-1.2,2.7-2.4,3.4C588.8,356.7,588.3,356.9,587.7,357z" class="st2"/><path d="M592.8,340.4c-2.2,0.4-4.4-1.1-4.8-3.4c-0.4-2.2,1.1-4.4,3.4-4.8c2.2-0.4,4.4,1.1,4.8,3.4 C596.6,337.9,595.1,340.1,592.8,340.4z" class="st2"/><path d="M599,364.8c-1.4,0.2-2.8-0.1-3.9-1c-2.2-1.6-2.6-4.6-1.1-6.7c0.7-0.9,1.7-1.5,2.8-1.7c1.4-0.2,2.8,0.1,3.9,1 c1.1,0.8,1.7,1.9,1.9,3.2c0.2,1.3-0.1,2.5-0.8,3.5C601.1,364,600.1,364.6,599,364.8z" class="st2"/><path d="M594.5,369.1c-0.1,0-0.4,0-0.6-0.2c-0.3-0.2-0.4-0.5-0.3-0.6c0.2,0,0.4,0,0.7,0.2 C594.5,368.7,594.5,369,594.5,369.1L594.5,369.1z" class="st2"/></g><g class="st3"><path d="M588.1,337.1c0.2,1.2,0.9,2.1,1.8,2.7c-0.6-0.6-1-1.3-1.2-2.2c-0.4-2.2,1.1-4.4,3.4-4.8 c1.1-0.2,2.1,0.1,3,0.6c-0.9-0.9-2.2-1.4-3.6-1.1C589.2,332.7,587.7,334.8,588.1,337.1z" class="st4"/><path d="M582.1,354.3c-1.7-2.9-1-6.5,1.6-8c0.5-0.3,1-0.5,1.6-0.6c1.5-0.3,3,0.1,4.2,1c-1.4-1.2-3.1-1.8-4.8-1.5 c-0.6,0.1-1.1,0.3-1.6,0.6c-2.6,1.5-3.3,5.1-1.6,8c0.5,0.9,1.2,1.6,2,2.2C583,355.5,582.5,354.9,582.1,354.3z" class="st4"/><path d="M591,322.7c-0.8-4.8,2.4-9.4,7.2-10.2c2.5-0.4,4.9,0.2,6.8,1.6c-1.9-1.7-4.6-2.6-7.4-2.1 c-4.8,0.8-8,5.4-7.2,10.2c0.4,2.3,1.7,4.2,3.4,5.5C592.4,326.5,591.4,324.7,591,322.7z" class="st4"/><path d="M612.2,351.7c0.2,0.9,0.7,1.6,1.4,2.1c-0.4-0.4-0.7-1-0.8-1.6c-0.3-1.7,0.8-3.3,2.5-3.6 c0.8-0.1,1.6,0,2.2,0.5c-0.7-0.7-1.7-1.1-2.8-0.9C613.1,348.4,611.9,350,612.2,351.7z" class="st4"/><path d="M594.1,368.7c0.1,0,0.2,0,0.3,0c-0.1-0.1-0.1-0.2-0.3-0.3c-0.2-0.2-0.5-0.2-0.7-0.2c0,0.1,0,0.4,0.3,0.6 c0.1,0.1,0.2,0.2,0.3,0.2C594.1,368.9,594.1,368.8,594.1,368.7z" class="st4"/><path d="M624.6,344.2c-0.8,0.1-1.4,0.9-1.3,1.8c0.1,0.5,0.4,0.9,0.9,1.1c-0.1-0.2-0.2-0.4-0.3-0.7 c-0.1-0.8,0.4-1.6,1.3-1.8c0.3-0.1,0.6,0,0.9,0.1C625.7,344.4,625.2,344.1,624.6,344.2z" class="st4"/><path d="M612,314.5c-0.8-0.7-1.3-1.6-1.5-2.7c-0.5-3,2-5.9,5.6-6.5c2-0.4,4,0.1,5.4,1.1c-1.4-1.3-3.6-2-6-1.6 c-3.6,0.6-6.1,3.6-5.6,6.5C610.2,312.6,610.9,313.7,612,314.5z" class="st4"/><path d="M585.9,326.1c-0.1-0.2-0.2-0.3-0.2-0.5c-0.1-0.4,0-0.9,0.3-1.3c0.3-0.5,0.8-0.8,1.3-0.9c0.2,0,0.5,0,0.7,0.1 c-0.1-0.2-0.2-0.3-0.4-0.4c-0.3-0.2-0.7-0.2-0.9-0.2c-0.5,0.1-1,0.4-1.3,0.9c-0.3,0.4-0.3,0.9-0.3,1.3c0.1,0.4,0.3,0.7,0.6,0.9 C585.8,326.1,585.8,326.1,585.9,326.1z" class="st4"/><path d="M634.7,299.2c0.1-0.3,0.5-0.5,1-0.6c0.9-0.2,2,0,3.2,0.5c0.5,0.2,1,0.5,1.4,0.8c-0.5-0.5-1.2-0.9-2-1.3 c-1.1-0.5-2.3-0.7-3.2-0.5c-0.5,0.1-0.9,0.3-1,0.6c-0.2,0.5,0.3,1.4,1.5,2.3C634.8,300.3,634.5,299.6,634.7,299.2z" class="st4"/><path d="M630.4,356.5c-0.1-0.6,0.3-1.1,0.8-1.2c0.2,0,0.3,0,0.5,0c-0.2-0.4-0.6-0.6-1.1-0.5c-0.6,0.1-0.9,0.6-0.8,1.2 c0.1,0.4,0.4,0.7,0.7,0.8C630.5,356.7,630.4,356.6,630.4,356.5z" class="st4"/><path d="M626.7,315.8c-0.5-2.8,1.4-5.4,4.1-5.9c1.3-0.2,2.7,0.1,3.7,0.8c-1.1-1-2.7-1.6-4.3-1.3 c-2.8,0.5-4.6,3.1-4.1,5.9c0.2,1.4,1.1,2.6,2.2,3.3C627.5,317.9,626.9,316.9,626.7,315.8z" class="st4"/><path d="M645.2,326.3c-0.3-1.4,0.7-2.8,2.2-3.1c0.7-0.1,1.3,0,1.8,0.4c-0.6-0.7-1.5-1-2.4-0.8 c-1.4,0.3-2.4,1.6-2.2,3.1c0.1,0.8,0.6,1.4,1.3,1.8C645.5,327.2,645.3,326.8,645.2,326.3z" class="st4"/><path d="M625.1,355c-0.1-0.6,0.3-1.1,0.8-1.2c0.2,0,0.3,0,0.5,0c-0.2-0.4-0.6-0.6-1.1-0.5c-0.6,0.1-0.9,0.6-0.8,1.2 c0.1,0.4,0.4,0.7,0.7,0.8C625.2,355.2,625.2,355.1,625.1,355z" class="st4"/><path d="M613.6,367.1c-0.3-1.6,0.8-3.2,2.4-3.4c0.8-0.1,1.5,0,2.1,0.4c-0.7-0.7-1.7-1.1-2.7-0.9 c-1.6,0.3-2.7,1.8-2.4,3.4c0.1,0.9,0.7,1.6,1.3,2C614,368.2,613.7,367.7,613.6,367.1z" class="st4"/><path d="M625.6,376.1c-0.2-0.1-0.6-0.1-1.1,0c-0.5,0.1-0.9,0.3-1.1,0.4c0.2,0.1,0.6,0.1,1.1,0 C625,376.5,625.4,376.3,625.6,376.1z" class="st4"/><path d="M594.6,357.6c0.7-0.9,1.7-1.5,2.8-1.7c1.3-0.2,2.6,0.1,3.7,0.9c-0.1-0.1-0.3-0.3-0.4-0.4 c-1.1-0.9-2.6-1.2-3.9-1c-1.1,0.2-2.1,0.8-2.8,1.7c-1.6,2-1.1,5,1.1,6.7c0.1,0.1,0.1,0.1,0.2,0.1 C593.5,362.2,593.1,359.5,594.6,357.6z" class="st4"/></g><path d="M175.6,184.6l-4.2,3.9c-0.4,0.4-1.1,0.4-1.5-0.1l-8.2-8.8c-0.4-0.4-0.4-1.1,0.1-1.5l4.2-3.9 c0.4-0.4,1.1-0.4,1.5,0.1l8.2,8.8C176.1,183.6,176.1,184.2,175.6,184.6z" class="st5"/><path d="M159.9,199.3l-8.3,7.7l-9.6-10.4l8.3-7.7L159.9,199.3z M159.5,180.3l-8.3,7.7l9.6,10.4l8.3-7.7L159.5,180.3z M176.4,164.5l-8.3,7.7l9.6,10.4l8.3-7.7L176.4,164.5z M185.7,156l-8.3,7.7l9.6,10.4l8.3-7.7L185.7,156z" class="st1"/><rect width="27.2" height="1.1" x="143.1" y="192" class="st6" transform="matrix(0.733 -0.6802 0.6802 0.733 -89.1634 157.9801)"/><rect width="27.1" height=".9" x="167.1" y="170" class="st6" transform="matrix(0.733 -0.6802 0.6802 0.733 -67.6909 168.3903)"/><ellipse cx="177" cy="190.6" class="st7" rx="9.4" ry="1.4" transform="matrix(0.733 -0.6802 0.6802 0.733 -82.3629 171.2957)"/><g><g><path d="M176,189.5c3.8-3.5,7.4-6,7.9-5.4c-1.7-1.8-6.2-0.5-10,3.1c-3.8,3.5-5.5,7.9-3.8,9.8 C169.6,196.4,172.2,193.1,176,189.5z" class="st1"/></g></g><circle cx="179.3" cy="192.8" r="1" class="st5"/><rect width=".5" height="3.6" x="177.1" y="188.9" class="st6" transform="matrix(0.733 -0.6802 0.6802 0.733 -82.3694 171.5964)"/><rect width=".5" height=".7" x="173.5" y="186.5" class="st6" transform="matrix(0.733 -0.6802 0.6802 0.733 -80.6881 168.1041)"/><g class="st8"><rect width="11.4" height="14.2" x="171.4" y="166.5" transform="matrix(0.733 -0.6802 0.6802 0.733 -70.8094 166.816)"/><path d="M178.1,191.5c3.8-3.5,6.4-6.8,5.8-7.4c-1.7-1.8-6.1-0.5-9.9,3L178.1,191.5z"/><path d="M180.1,192.1c-0.4-0.4-1-0.4-1.4-0.1l1.4,1.5C180.4,193.2,180.5,192.5,180.1,192.1z"/><path d="M166,174.2l-2.1,1.9l9.6,10.4l2.1-1.9c0.4-0.4,0.5-1.1,0.1-1.5l-8.2-8.8C167.1,173.9,166.4,173.8,166,174.2z"/><rect width="11.4" height="14.2" x="180.6" y="157.9" transform="matrix(-0.733 0.6802 -0.6802 -0.733 435.1703 159.2468)"/></g><circle cx="524.1" cy="345.1" r="2.6" class="st9"/><circle cx="589" cy="279.2" r="2.6" class="st10"/><circle cx="585.1" cy="289.1" r="1.3" class="st11"/><circle cx="424.1" cy="189.5" r="1.3" class="st12"/><circle cx="548.3" cy="318.2" r="1.3" class="st10"/><circle cx="432" cy="248.4" r="1.3" class="st9"/><circle cx="549.6" cy="264.7" r="1.3" class="st9"/><circle cx="522" cy="384.5" r="2.6" class="st9"/><circle cx="595" cy="441.3" r="2.6" class="st10"/><circle cx="584.8" cy="438.5" r="1.3" class="st11"/><circle cx="511.2" cy="333.6" r="1.3" class="st9"/><circle cx="604.8" cy="400.4" r="1.3" class="st9"/><circle cx="703.7" cy="325.6" r="2.6" class="st9"/><circle cx="667" cy="288.7" r="1.3" class="st9"/><circle cx="672" cy="349.1" r="2.6" class="st9"/><circle cx="727.1" cy="398.3" r="2.6" class="st9"/><circle cx="651.8" cy="426.8" r="1.3" class="st12"/><circle cx="707.8" cy="446.6" r="1.3" class="st9"/><circle cx="711" cy="404.5" r="1.3" class="st9"/><circle cx="371.3" cy="325" r="2.6" class="st9"/><circle cx="401.3" cy="250.2" r="1.3" class="st12"/><circle cx="405" cy="338.2" r="1.3" class="st10"/><circle cx="348.8" cy="278" r="1.3" class="st9"/><circle cx="333.7" cy="336.8" r="2.6" class="st9"/><circle cx="377.6" cy="308.9" r="1.3" class="st9"/><circle cx="519.6" cy="463.8" r="2.6" class="st9"/><circle cx="463.6" cy="369.4" r="1.3" class="st9"/><circle cx="93.2" cy="160" r="2.6" class="st9"/><circle cx="49.5" cy="227.6" r="1.3" class="st12"/><circle cx="106.4" cy="210.4" r="1.3" class="st9"/><circle cx="132.5" cy="155.7" r="2.6" class="st9"/><circle cx="84" cy="174.6" r="1.3" class="st9"/><circle cx="191.7" cy="257.8" r="2.6" class="st9"/><circle cx="113.1" cy="240.4" r="1.3" class="st12"/><circle cx="199.4" cy="222.5" r="1.3" class="st10"/><circle cx="149.1" cy="287.7" r="1.3" class="st9"/><circle cx="209.5" cy="293.1" r="2.6" class="st9"/><circle cx="174.8" cy="254.2" r="1.3" class="st9"/><circle cx="211.2" cy="145.2" r="2.6" class="st9"/><circle cx="220.7" cy="159.6" r="1.3" class="st9"/><circle cx="84.9" cy="352.4" r="2.6" class="st9"/><circle cx="127.5" cy="382.3" r="1.3" class="st9"/><circle cx="112.1" cy="323.7" r="2.6" class="st9"/><circle cx="87.2" cy="369.5" r="1.3" class="st9"/><circle cx="297.2" cy="276.6" r="1.3" class="st9"/><circle cx="241.8" cy="301.3" r="2.6" class="st9"/><circle cx="383" cy="149" r="1.3" class="st9"/><circle cx="352.3" cy="150.8" r="1.3" class="st12"/><circle cx="299.8" cy="178.6" r="1.3" class="st9"/><circle cx="732.3" cy="266" r="2.6" class="st9"/><circle cx="756" cy="293.3" r="1.3" class="st10"/><circle cx="734" cy="214" r="1.3" class="st9"/><circle cx="693.4" cy="259" r="2.6" class="st9"/><circle cx="745.3" cy="254.7" r="1.3" class="st9"/><circle cx="552.5" cy="130.1" r="1.3" class="st9"/><circle cx="603.6" cy="162.8" r="2.6" class="st9"/><circle cx="465.7" cy="157.7" r="2.6" class="st9"/><circle cx="489.6" cy="204" r="1.3" class="st9"/><circle cx="503.1" cy="144.9" r="2.6" class="st9"/><circle cx="459.9" cy="173.9" r="1.3" class="st9"/><circle cx="688.9" cy="188.8" r="1.3" class="st9"/><circle cx="628.4" cy="185.1" r="2.6" class="st9"/><circle cx="292.4" cy="427.2" r="2.6" class="st9"/><circle cx="211.9" cy="422.8" r="1.3" class="st12"/><circle cx="294.1" cy="391" r="1.3" class="st10"/><circle cx="255.1" cy="463.6" r="1.3" class="st9"/><circle cx="315.6" cy="459.1" r="2.6" class="st9"/><circle cx="275.1" cy="426.4" r="1.3" class="st9"/><circle cx="270.4" cy="512.9" r="1.3" class="st9"/><circle cx="121.9" cy="472.5" r="1.3" class="st9"/><circle cx="133.4" cy="501" r="1.3" class="st12"/><circle cx="176.7" cy="541.8" r="1.3" class="st9"/><circle cx="364.7" cy="98.3" r="1.3" class="st12"/><circle cx="519.3" cy="234" r="1.3" class="st9"/><circle cx="377.2" cy="154.7" r="1.3" class="st9"/><circle cx="404" cy="169.9" r="1.3" class="st12"/><circle cx="463.2" cy="175" r="1.3" class="st9"/><circle cx="312.6" cy="102.4" r="2.6" class="st9"/><circle cx="317.7" cy="50.6" r="1.3" class="st9"/><circle cx="274.3" cy="92.9" r="2.6" class="st9"/><circle cx="326.3" cy="91.9" r="1.3" class="st9"/></g></svg>